<svg width="140" height="54" viewBox="0 0 140 54" fill="none" xmlns="http://www.w3.org/2000/svg">
<path d="M13.2484 34.2144H22.1949C25.1157 34.2144 27.4846 36.5871 27.4846 39.5127H7.47567C5.75077 39.5127 4.34784 38.1075 4.34784 36.3798C4.34784 35.6426 4.60083 34.9285 5.0838 34.3526L18.4001 18.527H10.1205C7.19969 18.527 4.83081 16.1543 4.83081 13.2288H24.1268C25.8517 13.2288 27.2546 14.6339 27.2546 16.3616C27.2546 17.0988 27.0016 17.8129 26.5187 18.3658L13.2484 34.2144Z" fill="#141414"/>
<path d="M30.5894 32.8322V13.2517C34.2692 13.2517 37.2591 16.2464 37.2591 19.9321V39.5126C33.5563 39.5126 30.5894 36.5179 30.5894 32.8322Z" fill="#141414"/>
<path d="M98.2288 28.4784C98.2288 35.4122 93.629 39.8121 86.2924 39.8121C78.9098 39.8121 74.1951 35.4122 74.1951 28.4784V13.2517H74.2411C77.8979 13.2517 80.8647 16.2233 80.8647 19.886V28.4784C80.8647 32.049 83.1416 34.2144 86.3384 34.2144C89.4892 34.2144 91.6281 32.049 91.6281 28.4784V19.886C91.6281 16.2233 94.595 13.2517 98.2518 13.2517V28.4784H98.2288Z" fill="#141414"/>
<path d="M101.702 32.8322V13.2517C105.381 13.2517 108.371 16.2464 108.371 19.9321V39.5126C104.691 39.5126 101.702 36.5179 101.702 32.8322Z" fill="#141414"/>
<path d="M122.584 13.2517C130.818 13.2517 136.522 18.573 136.522 26.3822C136.522 34.1452 130.749 39.5126 122.331 39.5126H115.57C113.224 39.5126 111.338 37.6006 111.338 35.274V13.2517H122.584ZM117.985 34.1683H122.745C126.816 34.1683 129.737 31.0124 129.737 26.4052C129.737 21.7519 126.655 18.573 122.423 18.573H117.962V34.1683H117.985Z" fill="#141414"/>
<path d="M67.9625 21.9135C67.7555 20.8308 66.1685 17.1221 65.4556 17.2372L56.0721 18.7806C56.0721 18.7806 56.0261 18.9419 55.9341 19.2183C53.4502 18.2047 50.2304 18.8498 47.9535 20.0937C47.9535 20.0937 47.6545 21.0842 47.4016 21.9826C46.6196 22.1208 45.9526 22.2591 45.7456 22.3742C45.1707 22.6737 43.9057 22.3742 44.1127 23.9637C44.2277 26.6589 44.9177 29.0546 46.7346 30.2064L47.2866 29.0086C47.2866 29.0086 46.1596 24.3553 49.8164 23.1114C50.7824 22.7428 51.7713 22.9271 52.5993 23.4109C53.3582 23.8485 53.8872 24.5857 54.2092 25.3919C57.705 34.5372 70.2393 33.4315 67.9625 21.9135Z" fill="url(#paint0_linear)"/>
<path d="M69.1124 17.5826C67.2725 14.634 64.1676 12.6069 60.6718 12.3074C58.257 12.1001 55.8191 12.5608 53.5192 13.2979C53.0822 13.4362 50.5064 14.0812 50.3454 14.588C50.3454 14.588 50.1154 15.3481 49.8394 16.2926C49.0574 16.523 48.3675 16.8224 48.0915 17.2831C47.6085 18.0894 46.8956 20.393 46.8956 20.393L47.3785 23.0421C47.3785 23.0421 48.2295 19.5637 53.8412 19.1721C54.0252 19.1721 54.2092 19.1491 54.4162 19.1721C55.7501 19.1951 57.084 19.5176 58.234 20.2317C59.1999 20.8307 59.9819 21.66 60.6258 22.5814C61.7298 24.1248 62.2587 26.1059 64.0296 27.0273C65.4556 27.7645 67.2725 27.7875 68.6524 26.9582C72.1022 24.885 70.8603 20.3469 69.1124 17.5826Z" fill="url(#paint1_linear)"/>
<path opacity="0.4" d="M68.6983 27.0272C72.1482 24.9539 70.8832 20.4389 69.1583 17.6516C68.8363 17.1448 68.4683 16.661 68.0774 16.2003C66.4215 14.7491 65.5015 16.0391 66.3985 17.8359C67.2954 19.6327 63.9836 20.8536 61.7757 17.8819C59.5678 14.9103 54.7841 16.7071 57.6129 19.218C60.4418 21.7289 61.3847 23.8022 61.3847 23.8022C62.0977 25.0691 62.7187 26.3822 64.0756 27.0963C65.5015 27.8565 67.3184 27.8565 68.6983 27.0272Z" fill="url(#paint2_linear)"/>
<path opacity="0.8" d="M68.6524 26.9581C70.7453 25.7142 71.1132 23.5488 70.6763 21.4295C70.6073 21.084 70.3543 20.7845 70.0093 20.7385C69.4113 20.6463 68.7904 21.1992 68.2384 22.8808C66.9045 27.1424 60.6028 22.5813 60.6028 22.5813C61.7068 24.1247 62.2357 26.1058 64.0066 27.0273C65.4556 27.7644 67.2725 27.7874 68.6524 26.9581Z" fill="url(#paint3_linear)"/>
<path opacity="0.3" d="M63.2477 25.2988C63.3747 25.2988 63.4777 25.1959 63.4777 25.0689C63.4777 24.9418 63.3747 24.8389 63.2477 24.8389C63.1207 24.8389 63.0177 24.9418 63.0177 25.0689C63.0177 25.1959 63.1207 25.2988 63.2477 25.2988Z" fill="url(#paint4_linear)"/>
<path opacity="0.3" d="M67.9165 18.1348C68.0435 18.1348 68.1464 18.0318 68.1464 17.9048C68.1464 17.7778 68.0435 17.6748 67.9165 17.6748C67.7894 17.6748 67.6865 17.7778 67.6865 17.9048C67.6865 18.0318 67.7894 18.1348 67.9165 18.1348Z" fill="url(#paint5_linear)"/>
<path opacity="0.3" d="M64.2136 23.2034C64.4296 23.2034 64.6046 23.0281 64.6046 22.8118C64.6046 22.5955 64.4296 22.4202 64.2136 22.4202C63.9977 22.4202 63.8227 22.5955 63.8227 22.8118C63.8227 23.0281 63.9977 23.2034 64.2136 23.2034Z" fill="url(#paint6_linear)"/>
<path opacity="0.3" d="M69.7103 24.0328C69.9644 24.0328 70.1703 23.8265 70.1703 23.572C70.1703 23.3176 69.9644 23.1113 69.7103 23.1113C69.4563 23.1113 69.2504 23.3176 69.2504 23.572C69.2504 23.8265 69.4563 24.0328 69.7103 24.0328Z" fill="url(#paint7_linear)"/>
<path opacity="0.4" d="M61.1778 27.3958C59.6138 25.2074 57.291 23.4567 56.049 25.1844C54.8301 26.889 56.509 29.0544 56.532 29.1005C60.2578 32.7862 66.0765 32.2333 67.7324 27.4649C66.5135 29.9528 62.7417 29.5842 61.1778 27.3958Z" fill="url(#paint8_linear)"/>
<path opacity="0.3" d="M57.222 28.4085C57.349 28.4085 57.452 28.3055 57.452 28.1785C57.452 28.0515 57.349 27.9485 57.222 27.9485C57.095 27.9485 56.992 28.0515 56.992 28.1785C56.992 28.3055 57.095 28.4085 57.222 28.4085Z" fill="url(#paint9_linear)"/>
<path opacity="0.3" d="M62.9947 30.1592C63.1217 30.1592 63.2247 30.0562 63.2247 29.9292C63.2247 29.8022 63.1217 29.6992 62.9947 29.6992C62.8677 29.6992 62.7647 29.8022 62.7647 29.9292C62.7647 30.0562 62.8677 30.1592 62.9947 30.1592Z" fill="url(#paint10_linear)"/>
<path opacity="0.3" d="M58.1879 26.313C58.4039 26.313 58.5789 26.1377 58.5789 25.9214C58.5789 25.7051 58.4039 25.5298 58.1879 25.5298C57.972 25.5298 57.797 25.7051 57.797 25.9214C57.797 26.1377 57.972 26.313 58.1879 26.313Z" fill="url(#paint11_linear)"/>
<path opacity="0.3" d="M60.0048 29.9527C60.2589 29.9527 60.4648 29.7464 60.4648 29.492C60.4648 29.2375 60.2589 29.0312 60.0048 29.0312C59.7508 29.0312 59.5449 29.2375 59.5449 29.492C59.5449 29.7464 59.7508 29.9527 60.0048 29.9527Z" fill="url(#paint12_linear)"/>
<path d="M70.8833 44.7878C69.9863 41.3325 67.1575 38.5682 63.8227 37.4164C61.3388 36.4258 58.648 37.1169 56.0721 36.7023C55.9341 36.6792 55.7961 36.6562 55.6581 36.6332C49.1955 35.3662 45.4007 28.4554 47.7235 22.2818C48.6435 19.7939 50.4374 17.6516 52.9673 16.3155C54.8762 15.348 56.992 14.8412 59.1539 14.9794C61.5918 15.1637 62.1898 11.4089 59.7979 10.833C58.487 10.4874 57.268 10.4183 55.9111 10.4644C47.4476 10.6717 40.4559 18.55 40.8929 26.9581C41.0539 29.8836 42.0428 32.671 43.6758 35.0437C46.3896 39.0058 51.2884 41.5859 56.3021 41.4016C58.671 41.3094 61.0398 40.4341 63.4317 40.8257C67.1575 41.4476 70.0783 44.4653 71.2053 48.0129C71.2513 46.9762 71.1823 45.8245 70.8833 44.7878Z" fill="url(#paint13_linear)"/>
<path opacity="0.5" d="M46.9415 17.1908C47.2865 16.2233 47.7925 15.417 48.6434 14.749C49.5634 14.0118 50.6673 13.482 51.8403 13.2517C52.1162 13.1826 52.3922 13.1595 52.6682 13.1826C53.0592 13.2517 53.5652 13.5742 53.5192 14.0118C53.4502 14.5877 52.7372 14.6338 52.4382 15.0254C52.0242 15.6013 52.6912 16.4536 53.3352 16.1542C53.4272 16.1081 53.4962 16.0851 53.5882 16.039C55.3131 15.2788 57.199 14.9102 59.1079 15.0024C61.5457 15.1867 62.1437 11.4318 59.7518 10.8559C58.4409 10.5104 57.222 10.4413 55.865 10.4874C51.5643 10.5795 47.6315 12.6758 44.8716 15.8317C44.1587 16.6379 44.2737 18.0431 45.3546 18.4808C46.0446 18.7572 46.5735 18.3196 46.7805 17.6745C46.8495 17.4903 46.8955 17.329 46.9415 17.1908Z" fill="url(#paint14_linear)"/>
<path opacity="0.5" d="M58.6019 13.2057C57.7509 14.4266 55.52 13.3209 55.681 14.5878C55.865 14.9564 56.302 15.1637 56.716 15.0946C57.4979 14.9794 58.3029 14.9334 59.1079 14.9794C61.5457 15.1637 62.1437 11.4089 59.7518 10.833C58.4409 10.4874 57.222 10.4183 55.865 10.4644C55.658 10.4644 55.4511 10.4874 55.2441 10.4874C54.6001 10.5335 54.5311 11.4549 55.1521 11.6162C56.739 12.0078 59.5908 11.7775 58.6019 13.2057Z" fill="url(#paint15_linear)"/>
<path opacity="0.3" d="M53.7951 15.3704C53.9222 15.3704 54.0251 15.2674 54.0251 15.1404C54.0251 15.0134 53.9222 14.9104 53.7951 14.9104C53.6681 14.9104 53.5652 15.0134 53.5652 15.1404C53.5652 15.2674 53.6681 15.3704 53.7951 15.3704Z" fill="url(#paint16_linear)"/>
<path opacity="0.3" d="M48.6894 13.6433C48.8672 13.6433 49.0114 13.4989 49.0114 13.3208C49.0114 13.1427 48.8672 12.9983 48.6894 12.9983C48.5116 12.9983 48.3674 13.1427 48.3674 13.3208C48.3674 13.4989 48.5116 13.6433 48.6894 13.6433Z" fill="url(#paint17_linear)"/>
<path opacity="0.3" d="M54.7841 13.2749C55.0001 13.2749 55.1751 13.0996 55.1751 12.8833C55.1751 12.667 55.0001 12.4917 54.7841 12.4917C54.5682 12.4917 54.3932 12.667 54.3932 12.8833C54.3932 13.0996 54.5682 13.2749 54.7841 13.2749Z" fill="url(#paint18_linear)"/>
<path opacity="0.3" d="M59.1999 11.846C59.3269 11.846 59.4299 11.743 59.4299 11.616C59.4299 11.489 59.3269 11.386 59.1999 11.386C59.0728 11.386 58.9699 11.489 58.9699 11.616C58.9699 11.743 59.0728 11.846 59.1999 11.846Z" fill="url(#paint19_linear)"/>
<path opacity="0.3" d="M60.2578 14.0811C60.5119 14.0811 60.7178 13.8748 60.7178 13.6204C60.7178 13.3659 60.5119 13.1597 60.2578 13.1597C60.0038 13.1597 59.7979 13.3659 59.7979 13.6204C59.7979 13.8748 60.0038 14.0811 60.2578 14.0811Z" fill="url(#paint20_linear)"/>
<path opacity="0.3" d="M58.3949 14.3114C58.4179 14.3804 58.3719 14.4494 58.3029 14.4723C58.2339 14.4953 58.1649 14.4493 58.1419 14.3803C58.1189 14.3114 58.1649 14.2424 58.2339 14.2194C58.3029 14.1964 58.3949 14.2424 58.3949 14.3114Z" fill="url(#paint21_linear)"/>
<path d="M63.5007 42.1388C63.0637 42.0697 62.6267 42.0927 62.2357 42.254C61.5458 42.5534 61.0628 43.2215 61.0168 43.9817C60.9478 45.2717 62.1437 46.3313 63.4087 46.0779C64.0986 45.9397 64.7196 45.8245 65.4326 45.8245C65.9845 45.8476 66.5595 45.9167 67.0885 46.0779C67.8014 46.2852 68.4914 46.6538 69.0664 47.1606C69.2274 47.2988 69.3653 47.4601 69.4803 47.6213C68.7904 45.6172 67.4564 43.8665 65.5705 42.8759C64.9956 42.5765 64.2366 42.2309 63.5007 42.1388Z" fill="#3FC2CB"/>
<path d="M69.9403 39.6738C70.1013 28.0638 61.4078 32.2563 66.5595 35.5735C66.5595 35.5735 68.6294 36.7483 69.9403 39.6738Z" fill="#3FC2CB"/>
<g opacity="0.5">
<path opacity="0.5" d="M59.8438 38.3147C49.0574 38.8906 45.8836 32.0029 45.3316 29.2847L41.9508 31.8186C42.4108 32.9934 42.9857 34.0992 43.6987 35.1358C46.4126 39.0979 51.3113 41.678 56.325 41.4937C58.6939 41.4015 61.0628 40.5262 63.4547 40.9178C67.1805 41.5397 70.1013 44.5574 71.2282 48.105C71.2282 48.105 72.1712 37.6467 59.8438 38.3147Z" fill="url(#paint22_linear)"/>
</g>
<path d="M70.6993 44.166C70.4923 43.0142 70.0553 41.8624 69.5723 40.8028C68.5834 38.7296 67.0655 36.8406 64.9496 35.8501C63.9606 35.3894 62.9487 35.2281 61.8678 35.1129C60.2118 34.9517 58.5789 34.5601 57.038 33.9151C56.509 33.7077 56.0031 33.4543 55.4511 33.3392C54.4392 33.1549 53.4502 33.6386 53.0132 34.6061C52.6912 35.3202 52.7832 36.1726 53.2202 36.8176C53.6112 37.3935 54.3472 37.6699 54.9911 37.8542C57.107 38.4762 59.3379 38.6835 61.5458 38.5453C63.0867 38.4301 64.5586 38.6144 65.9615 39.3055C67.8474 40.2499 69.4803 41.8164 70.4463 43.6823C70.4923 43.7975 70.6303 44.0048 70.6993 44.166Z" fill="url(#paint23_linear)"/>
<path opacity="0.8" d="M60.6488 37.6008C60.6488 37.6008 60.6258 37.5778 60.6028 37.5778C59.9358 36.9788 59.0159 37.0019 58.2339 36.7024C58.0729 36.6333 57.9349 36.5411 57.8659 36.3799C57.8199 36.2878 57.7969 36.1726 57.8199 36.0804C57.8429 35.9422 57.9119 35.781 58.0729 35.7349C58.1649 35.6888 58.2799 35.6888 58.3719 35.7119C58.8549 35.781 59.6138 36.3799 59.9818 35.7579C60.2808 35.2281 59.8208 34.8595 59.3608 34.6983C58.6019 34.4449 57.7969 34.2376 57.061 33.9151C56.532 33.7077 56.026 33.4543 55.4741 33.3392C54.4621 33.1549 53.4732 33.6386 53.0362 34.6061C52.7142 35.3202 52.8062 36.1726 53.2432 36.8176C53.6341 37.3935 54.3701 37.6699 55.0141 37.8542C56.302 38.2228 57.6129 38.4531 58.9469 38.5453C59.3838 38.5683 59.8438 38.6374 60.2808 38.5683C60.8098 38.4992 61.1318 38.0615 60.6488 37.6008Z" fill="url(#paint24_linear)"/>
<path opacity="0.3" d="M54.1171 36.448C54.2442 36.448 54.3471 36.345 54.3471 36.218C54.3471 36.091 54.2442 35.988 54.1171 35.988C53.9901 35.988 53.8871 36.091 53.8871 36.218C53.8871 36.345 53.9901 36.448 54.1171 36.448Z" fill="url(#paint25_linear)"/>
<path opacity="0.3" d="M55.2441 34.7442C55.46 34.7442 55.6351 34.5688 55.6351 34.3525C55.6351 34.1363 55.46 33.9609 55.2441 33.9609C55.0282 33.9609 54.8531 34.1363 54.8531 34.3525C54.8531 34.5688 55.0282 34.7442 55.2441 34.7442Z" fill="url(#paint26_linear)"/>
<path opacity="0.3" d="M56.164 36.4488C56.4181 36.4488 56.624 36.2425 56.624 35.9881C56.624 35.7336 56.4181 35.5273 56.164 35.5273C55.91 35.5273 55.7041 35.7336 55.7041 35.9881C55.7041 36.2425 55.91 36.4488 56.164 36.4488Z" fill="url(#paint27_linear)"/>
<path opacity="0.3" d="M67.4334 33.7537C67.6875 33.7537 67.8934 33.5474 67.8934 33.293C67.8934 33.0385 67.6875 32.8323 67.4334 32.8323C67.1794 32.8323 66.9734 33.0385 66.9734 33.293C66.9734 33.5474 67.1794 33.7537 67.4334 33.7537Z" fill="url(#paint28_linear)"/>
<path opacity="0.3" d="M67.6634 35.6419C67.7905 35.6419 67.8934 35.5389 67.8934 35.4119C67.8934 35.2849 67.7905 35.1819 67.6634 35.1819C67.5364 35.1819 67.4334 35.2849 67.4334 35.4119C67.4334 35.5389 67.5364 35.6419 67.6634 35.6419Z" fill="url(#paint29_linear)"/>
<path opacity="0.3" d="M62.7647 43.9124C63.0187 43.9124 63.2246 43.7061 63.2246 43.4517C63.2246 43.1972 63.0187 42.991 62.7647 42.991C62.5106 42.991 62.3047 43.1972 62.3047 43.4517C62.3047 43.7061 62.5106 43.9124 62.7647 43.9124Z" fill="url(#paint30_linear)"/>
<path opacity="0.3" d="M64.0986 45.3631C64.2256 45.3631 64.3286 45.2601 64.3286 45.1331C64.3286 45.006 64.2256 44.9031 64.0986 44.9031C63.9716 44.9031 63.8686 45.006 63.8686 45.1331C63.8686 45.2601 63.9716 45.3631 64.0986 45.3631Z" fill="url(#paint31_linear)"/>
<g style="mix-blend-mode:overlay">
<rect x="40" y="10" width="33" height="41" fill="#6071AD"/>
</g>
<defs>
<linearGradient id="paint0_linear" x1="50.0817" y1="16.9713" x2="63.3733" y2="31.8136" gradientUnits="userSpaceOnUse">
<stop stop-color="#1C75BC"/>
<stop offset="1" stop-color="#49D9CF"/>
</linearGradient>
<linearGradient id="paint1_linear" x1="43.8834" y1="9.28701" x2="65.595" y2="25.1209" gradientUnits="userSpaceOnUse">
<stop stop-color="#1C75BC"/>
<stop offset="1" stop-color="#49D9CF"/>
</linearGradient>
<linearGradient id="paint2_linear" x1="61.4398" y1="12.011" x2="65.9657" y2="26.9224" gradientUnits="userSpaceOnUse">
<stop stop-color="white"/>
<stop offset="1" stop-color="white" stop-opacity="0"/>
</linearGradient>
<linearGradient id="paint3_linear" x1="67.3933" y1="27.9681" x2="65.2822" y2="20.7552" gradientUnits="userSpaceOnUse">
<stop stop-color="white"/>
<stop offset="1" stop-color="white" stop-opacity="0"/>
</linearGradient>
<linearGradient id="paint4_linear" x1="63.5003" y1="25.3279" x2="63.126" y2="24.9581" gradientUnits="userSpaceOnUse">
<stop stop-color="white"/>
<stop offset="1" stop-color="white" stop-opacity="0"/>
</linearGradient>
<linearGradient id="paint5_linear" x1="68.1773" y1="18.1548" x2="67.7963" y2="17.7783" gradientUnits="userSpaceOnUse">
<stop stop-color="white"/>
<stop offset="1" stop-color="white" stop-opacity="0"/>
</linearGradient>
<linearGradient id="paint6_linear" x1="64.6462" y1="23.2361" x2="64.0126" y2="22.6111" gradientUnits="userSpaceOnUse">
<stop stop-color="white"/>
<stop offset="1" stop-color="white" stop-opacity="0"/>
</linearGradient>
<linearGradient id="paint7_linear" x1="70.2255" y1="24.0765" x2="69.4609" y2="23.3222" gradientUnits="userSpaceOnUse">
<stop stop-color="white"/>
<stop offset="1" stop-color="white" stop-opacity="0"/>
</linearGradient>
<linearGradient id="paint8_linear" x1="55.809" y1="19.8401" x2="64.2818" y2="31.0683" gradientUnits="userSpaceOnUse">
<stop stop-color="white"/>
<stop offset="1" stop-color="white" stop-opacity="0"/>
</linearGradient>
<linearGradient id="paint9_linear" x1="57.4754" y1="28.4401" x2="57.1011" y2="28.0703" gradientUnits="userSpaceOnUse">
<stop stop-color="white"/>
<stop offset="1" stop-color="white" stop-opacity="0"/>
</linearGradient>
<linearGradient id="paint10_linear" x1="63.2592" y1="30.1802" x2="62.8782" y2="29.8037" gradientUnits="userSpaceOnUse">
<stop stop-color="white"/>
<stop offset="1" stop-color="white" stop-opacity="0"/>
</linearGradient>
<linearGradient id="paint11_linear" x1="58.6213" y1="26.3484" x2="57.9877" y2="25.7233" gradientUnits="userSpaceOnUse">
<stop stop-color="white"/>
<stop offset="1" stop-color="white" stop-opacity="0"/>
</linearGradient>
<linearGradient id="paint12_linear" x1="60.5207" y1="30.0061" x2="59.7561" y2="29.2518" gradientUnits="userSpaceOnUse">
<stop stop-color="white"/>
<stop offset="1" stop-color="white" stop-opacity="0"/>
</linearGradient>
<linearGradient id="paint13_linear" x1="71.5665" y1="70.0021" x2="35.8172" y2="-15.6145" gradientUnits="userSpaceOnUse">
<stop stop-color="#1C75BC"/>
<stop offset="1" stop-color="#49D9CF"/>
</linearGradient>
<linearGradient id="paint14_linear" x1="41.9196" y1="17.9432" x2="59.9578" y2="11.6396" gradientUnits="userSpaceOnUse">
<stop stop-color="white"/>
<stop offset="1" stop-color="white" stop-opacity="0"/>
</linearGradient>
<linearGradient id="paint15_linear" x1="61.4879" y1="16.2756" x2="55.9226" y2="10.7856" gradientUnits="userSpaceOnUse">
<stop stop-color="white"/>
<stop offset="1" stop-color="white" stop-opacity="0"/>
</linearGradient>
<linearGradient id="paint16_linear" x1="54.0562" y1="15.3926" x2="53.6819" y2="15.0228" gradientUnits="userSpaceOnUse">
<stop stop-color="white"/>
<stop offset="1" stop-color="white" stop-opacity="0"/>
</linearGradient>
<linearGradient id="paint17_linear" x1="49.0683" y1="13.6783" x2="48.523" y2="13.1403" gradientUnits="userSpaceOnUse">
<stop stop-color="white"/>
<stop offset="1" stop-color="white" stop-opacity="0"/>
</linearGradient>
<linearGradient id="paint18_linear" x1="55.2021" y1="13.3008" x2="54.5685" y2="12.6758" gradientUnits="userSpaceOnUse">
<stop stop-color="white"/>
<stop offset="1" stop-color="white" stop-opacity="0"/>
</linearGradient>
<linearGradient id="paint19_linear" x1="59.4417" y1="11.8556" x2="59.0787" y2="11.4969" gradientUnits="userSpaceOnUse">
<stop stop-color="white"/>
<stop offset="1" stop-color="white" stop-opacity="0"/>
</linearGradient>
<linearGradient id="paint20_linear" x1="60.7813" y1="14.141" x2="60.0168" y2="13.3868" gradientUnits="userSpaceOnUse">
<stop stop-color="white"/>
<stop offset="1" stop-color="white" stop-opacity="0"/>
</linearGradient>
<linearGradient id="paint21_linear" x1="58.4293" y1="14.4926" x2="58.2145" y2="14.2803" gradientUnits="userSpaceOnUse">
<stop stop-color="white"/>
<stop offset="1" stop-color="white" stop-opacity="0"/>
</linearGradient>
<linearGradient id="paint22_linear" x1="79.0657" y1="49.1582" x2="45.4458" y2="33.7882" gradientUnits="userSpaceOnUse">
<stop stop-color="white"/>
<stop offset="1" stop-color="white" stop-opacity="0"/>
</linearGradient>
<linearGradient id="paint23_linear" x1="71.6781" y1="55.2119" x2="59.7677" y2="36.1983" gradientUnits="userSpaceOnUse">
<stop stop-color="#1C75BC"/>
<stop offset="1" stop-color="#49D9CF"/>
</linearGradient>
<linearGradient id="paint24_linear" x1="60.0316" y1="44.2248" x2="55.5614" y2="33.5823" gradientUnits="userSpaceOnUse">
<stop stop-color="white"/>
<stop offset="1" stop-color="white" stop-opacity="0"/>
</linearGradient>
<linearGradient id="paint25_linear" x1="54.3757" y1="36.4785" x2="54.0014" y2="36.1086" gradientUnits="userSpaceOnUse">
<stop stop-color="white"/>
<stop offset="1" stop-color="white" stop-opacity="0"/>
</linearGradient>
<linearGradient id="paint26_linear" x1="55.6757" y1="34.7707" x2="55.0421" y2="34.1456" gradientUnits="userSpaceOnUse">
<stop stop-color="white"/>
<stop offset="1" stop-color="white" stop-opacity="0"/>
</linearGradient>
<linearGradient id="paint27_linear" x1="56.6907" y1="36.5106" x2="55.9261" y2="35.7564" gradientUnits="userSpaceOnUse">
<stop stop-color="white"/>
<stop offset="1" stop-color="white" stop-opacity="0"/>
</linearGradient>
<linearGradient id="paint28_linear" x1="67.9476" y1="33.8126" x2="67.183" y2="33.0584" gradientUnits="userSpaceOnUse">
<stop stop-color="white"/>
<stop offset="1" stop-color="white" stop-opacity="0"/>
</linearGradient>
<linearGradient id="paint29_linear" x1="67.9227" y1="35.6825" x2="67.541" y2="35.3053" gradientUnits="userSpaceOnUse">
<stop stop-color="white"/>
<stop offset="1" stop-color="white" stop-opacity="0"/>
</linearGradient>
<linearGradient id="paint30_linear" x1="63.4772" y1="43.6071" x2="62.4297" y2="43.3737" gradientUnits="userSpaceOnUse">
<stop stop-color="white"/>
<stop offset="1" stop-color="white" stop-opacity="0"/>
</linearGradient>
<linearGradient id="paint31_linear" x1="64.4479" y1="45.2052" x2="63.9242" y2="45.0883" gradientUnits="userSpaceOnUse">
<stop stop-color="white"/>
<stop offset="1" stop-color="white" stop-opacity="0"/>
</linearGradient>
</defs>
</svg>
